<?xml version="1.0" encoding="UTF-8" standalone="no"?>
<!DOCTYPE svg PUBLIC "-//W3C//DTD SVG 1.1//EN" "http://www.w3.org/Graphics/SVG/1.1/DTD/svg11.dtd">
<svg version="1.1" xmlns="http://www.w3.org/2000/svg" xmlns:xlink="http://www.w3.org/1999/xlink" preserveAspectRatio="xMidYMid meet" viewBox="18.999999999999943 284.3571428571429 544 38.64285714285711" width="491" height="34.64"><defs><path d="M529.07 287.29L529.94 288.56L530.86 289.8L531.84 291L532.87 292.17L533.95 293.31L535.07 294.4L536.25 295.46L537.47 296.48L538.74 297.46L540.05 298.4L541.4 299.29L542.79 300.15L544.22 300.95L545.69 301.71L547.2 302.42L548.74 303.08L550.31 303.7L551.91 304.26L553.55 304.76L555.21 305.22L556.9 305.61L558.62 305.96L560 306.18L560 320L20 320L20 306.16L21.03 306L22.75 305.67L24.44 305.28L26.11 304.83L27.74 304.33L29.35 303.78L30.93 303.18L32.47 302.52L33.98 301.82L35.45 301.07L36.88 300.27L38.28 299.42L39.64 298.53L40.95 297.6L42.22 296.63L43.45 295.61L44.63 294.56L45.77 293.47L46.85 292.34L47.89 291.18L48.87 289.98L49.8 288.75L50.67 287.48L51.49 286.19L51.97 285.36L52.25 285.36L52.61 285.99L53.42 287.29L54.29 288.56L55.21 289.8L56.19 291L57.22 292.17L58.3 293.31L59.43 294.4L60.6 295.46L61.83 296.48L63.09 297.46L64.4 298.4L65.76 299.29L67.15 300.15L68.58 300.95L70.05 301.71L71.55 302.42L73.09 303.08L74.66 303.7L76.27 304.26L77.9 304.76L79.57 305.22L81.26 305.61L82.98 305.96L84.72 306.24L86.49 306.47L88.27 306.63L90.08 306.73L91.91 306.77L93.73 306.75L95.54 306.67L97.33 306.52L99.1 306.31L100.85 306.04L102.57 305.72L104.26 305.34L105.93 304.9L107.57 304.41L109.18 303.86L110.76 303.27L112.3 302.62L113.82 301.92L115.29 301.18L116.73 300.39L118.13 299.55L119.49 298.67L120.81 297.74L122.09 296.77L123.32 295.77L124.51 294.72L125.64 293.63L126.73 292.51L127.78 291.35L128.76 290.16L129.7 288.93L129.93 288.6L130.03 288.75L130.96 289.98L131.95 291.18L132.98 292.34L134.07 293.47L135.2 294.56L136.38 295.61L137.61 296.63L138.88 297.6L140.19 298.53L141.55 299.42L142.95 300.27L144.38 301.07L145.85 301.82L147.36 302.52L148.9 303.18L150.48 303.78L152.09 304.33L153.72 304.83L155.39 305.28L157.08 305.67L158.8 306L160.55 306.28L162.31 306.49L164.1 306.65L165.91 306.74L167.74 306.77L169.57 306.74L171.37 306.65L173.16 306.49L174.93 306.28L176.67 306L178.39 305.67L180.09 305.28L181.75 304.83L183.39 304.33L185 303.78L186.57 303.18L188.11 302.52L189.62 301.82L191.1 301.07L192.53 300.27L193.93 299.42L195.28 298.53L196.6 297.6L197.87 296.63L199.1 295.61L200.28 294.56L201.41 293.47L202.5 292.34L203.53 291.18L204.51 289.98L205.44 288.75L206.32 287.48L207.14 286.19L207.62 285.36L207.89 285.36L208.25 285.99L209.07 287.29L209.94 288.56L210.86 289.8L211.84 291L212.87 292.17L213.95 293.31L215.07 294.4L216.25 295.46L217.47 296.48L218.74 297.46L220.05 298.4L221.4 299.29L222.79 300.15L224.22 300.95L225.69 301.71L227.2 302.42L228.74 303.08L230.31 303.7L231.91 304.26L233.55 304.76L235.21 305.22L236.9 305.61L238.62 305.96L240.36 306.24L242.13 306.47L243.92 306.63L245.73 306.73L247.55 306.77L249.38 306.75L251.19 306.67L252.98 306.52L254.75 306.31L256.49 306.04L258.21 305.72L259.91 305.34L261.58 304.9L263.22 304.41L264.83 303.86L266.4 303.27L267.95 302.62L269.46 301.92L270.94 301.18L272.38 300.39L273.78 299.55L275.14 298.67L276.46 297.74L277.73 296.77L278.96 295.77L280.15 294.72L281.29 293.63L282.38 292.51L283.42 291.35L284.41 290.16L285.35 288.93L286.23 287.67L287.05 286.38L287.65 285.36L287.86 285.36L288.34 286.19L289.16 287.48L290.03 288.75L290.96 289.98L291.95 291.18L292.98 292.34L294.07 293.47L295.2 294.56L296.38 295.61L297.61 296.63L298.88 297.6L300.19 298.53L301.55 299.42L302.95 300.27L304.38 301.07L305.85 301.82L307.36 302.52L308.9 303.18L310.48 303.78L312.09 304.33L313.72 304.83L315.39 305.28L317.08 305.67L318.8 306L320.55 306.28L322.31 306.49L324.1 306.65L325.91 306.74L327.74 306.77L329.57 306.74L331.37 306.65L333.16 306.49L334.93 306.28L336.67 306L338.39 305.67L340.09 305.28L341.75 304.83L343.39 304.33L345 303.78L346.57 303.18L348.11 302.52L349.62 301.82L351.1 301.07L352.53 300.27L353.93 299.42L355.28 298.53L356.6 297.6L357.87 296.63L359.1 295.61L360.28 294.56L361.41 293.47L362.5 292.34L363.53 291.18L364.51 289.98L365.44 288.75L366.32 287.48L367.14 286.19L367.62 285.36L367.89 285.36L368.25 285.99L369.07 287.29L369.94 288.56L370.86 289.8L371.84 291L372.87 292.17L373.95 293.31L375.07 294.4L376.25 295.46L377.47 296.48L378.74 297.46L380.05 298.4L381.4 299.29L382.79 300.15L384.22 300.95L385.69 301.71L387.2 302.42L388.74 303.08L390.31 303.7L391.91 304.26L393.55 304.76L395.21 305.22L396.9 305.61L398.62 305.96L400.36 306.24L402.13 306.47L403.92 306.63L405.73 306.73L407.55 306.77L409.38 306.75L411.19 306.67L412.98 306.52L414.75 306.31L416.49 306.04L418.21 305.72L419.91 305.34L421.58 304.9L423.22 304.41L424.83 303.86L426.4 303.27L427.95 302.62L429.46 301.92L430.94 301.18L432.38 300.39L433.78 299.55L435.14 298.67L436.46 297.74L437.73 296.77L438.96 295.77L440.15 294.72L441.29 293.63L442.38 292.51L443.42 291.35L444.41 290.16L445.35 288.93L446.23 287.67L447.05 286.38L447.65 285.36L447.86 285.36L448.34 286.19L449.16 287.48L450.03 288.75L450.96 289.98L451.95 291.18L452.98 292.34L454.07 293.47L455.2 294.56L456.38 295.61L457.61 296.63L458.88 297.6L460.19 298.53L461.55 299.42L462.95 300.27L464.38 301.07L465.85 301.82L467.36 302.52L468.9 303.18L470.48 303.78L472.09 304.33L473.72 304.83L475.39 305.28L477.08 305.67L478.8 306L480.55 306.28L482.31 306.49L484.1 306.65L485.91 306.74L487.74 306.77L489.57 306.74L491.37 306.65L493.16 306.49L494.93 306.28L496.67 306L498.39 305.67L500.09 305.28L501.75 304.83L503.39 304.33L505 303.78L506.57 303.18L508.11 302.52L509.62 301.82L511.1 301.07L512.53 300.27L513.93 299.42L515.28 298.53L516.6 297.6L517.87 296.63L519.1 295.61L520.28 294.56L521.41 293.47L522.5 292.34L523.53 291.18L524.51 289.98L525.44 288.75L526.32 287.48L527.14 286.19L527.62 285.36L527.89 285.36L528.25 285.99L529.07 287.29Z" id="cQNiVQKWF"></path></defs><g><g><use xlink:href="#cQNiVQKWF" opacity="1" fill="#eee8aa" fill-opacity="1"></use></g></g></svg>